<svg id="Capa_1" enable-background="new 0 0 512 512" height="512" viewBox="0 0 512 512" width="512" xmlns="http://www.w3.org/2000/svg"><g><path d="m497 482h-106v-62h-70v62h-130v-62h-70v62h-106c-8.284 0-15 6.716-15 15s6.716 15 15 15h482c8.284 0 15-6.716 15-15s-6.716-15-15-15z"/><circle cx="481" cy="30" r="15"/><circle cx="31" cy="90" r="15"/><circle cx="256" cy="50" r="15"/><path d="m296.012 175.592c-3.531 6.861-8.636 12.537-14.751 16.685l32.058 47.578c9.318 13.828 10.24 31.563 2.408 46.283-4.737 8.904-12.18 15.769-21.013 19.802l28.99 44.495c7.726 11.858 9.337 26.483 4.703 39.565h157.593c5.503 0 10.565-3.014 13.188-7.853 2.623-4.838 2.385-10.725-.62-15.336l-56.56-86.811h33.992c5.545 0 10.638-3.06 13.243-7.955 2.604-4.895 2.295-10.828-.803-15.427l-58.363-86.618h25.923c5.619 0 10.767-3.141 13.337-8.137 2.571-4.996 2.134-11.01-1.131-15.582l-100-140c-2.816-3.941-7.362-6.281-12.206-6.281s-9.39 2.34-12.206 6.281l-69.36 97.104 18.185 25.458c9.841 13.781 11.141 31.693 3.393 46.749zm54.988 29.408c8.284 0 15 6.716 15 15s-6.716 15-15 15-15-6.716-15-15 6.716-15 15-15z"/><path d="m26 390h260c5.503 0 10.565-3.014 13.188-7.853 2.623-4.838 2.385-10.725-.62-15.336l-56.56-86.811h33.992c5.545 0 10.638-3.06 13.243-7.955 2.604-4.895 2.295-10.828-.803-15.427l-58.363-86.618h25.923c5.619 0 10.767-3.141 13.337-8.137 2.571-4.996 2.134-11.01-1.131-15.582l-100-140c-2.816-3.941-7.362-6.281-12.206-6.281s-9.39 2.34-12.206 6.281l-100 140c-3.266 4.572-3.703 10.586-1.131 15.582 2.57 4.996 7.718 8.137 13.337 8.137h25.923l-58.363 86.618c-3.099 4.599-3.408 10.531-.803 15.427s7.698 7.955 13.243 7.955h33.992l-56.56 86.812c-3.004 4.611-3.242 10.498-.62 15.336 2.623 4.838 7.685 7.852 13.188 7.852zm135-295c8.284 0 15 6.716 15 15s-6.716 15-15 15-15-6.716-15-15 6.716-15 15-15zm-30 220c8.284 0 15 6.716 15 15s-6.716 15-15 15-15-6.716-15-15 6.716-15 15-15z"/></g></svg>